{
  "accessors": [
    {
      "bufferView": 2,
      "componentType": 5126,
      "count": 320,
      "max": [
        2.896484136581421,
        2.9591848850250244,
        2.359410047531128
      ],
      "min": [
        -2.896484136581421,
        1.3597309589385986e-06,
        -2.359410047531128
      ],
      "type": "VEC3"
    },
    {
      "bufferView": 2,
      "byteOffset": 3840,
      "componentType": 5126,
      "count": 320,
      "max": [
        1.0,
        0.913882315158844,
        1.0
      ],
      "min": [
        -1.0,
        -1.0,
        -1.0
      ],
      "type": "VEC3"
    },
    {
      "bufferView": 1,
      "componentType": 5126,
      "count": 320,
      "max": [
        1.9751588106155396,
        0.9859939217567444
      ],
      "min": [
        0.5109443664550781,
        0.04640781879425049
      ],
      "type": "VEC2"
    },
    {
      "bufferView": 1,
      "byteOffset": 2560,
      "componentType": 5126,
      "count": 320,
      "max": [
        1.9751588106155396,
        0.9859939217567444
      ],
      "min": [
        0.5109443664550781,
        0.04640781879425049
      ],
      "type": "VEC2"
    },
    {
      "bufferView": 1,
      "byteOffset": 5120,
      "componentType": 5126,
      "count": 320,
      "max": [
        1.9751588106155396,
        0.9859939217567444
      ],
      "min": [
        0.5109443664550781,
        0.04640781879425049
      ],
      "type": "VEC2"
    },
    {
      "bufferView": 1,
      "byteOffset": 7680,
      "componentType": 5126,
      "count": 320,
      "max": [
        1.9751588106155396,
        0.9859939217567444
      ],
      "min": [
        0.5109443664550781,
        0.04640781879425049
      ],
      "type": "VEC2"
    },
    {
      "bufferView": 1,
      "byteOffset": 10240,
      "componentType": 5126,
      "count": 320,
      "max": [
        1.9751588106155396,
        0.9859939217567444
      ],
      "min": [
        0.5109443664550781,
        0.04640781879425049
      ],
      "type": "VEC2"
    },
    {
      "bufferView": 1,
      "byteOffset": 12800,
      "componentType": 5126,
      "count": 320,
      "max": [
        1.9751588106155396,
        0.9859939217567444
      ],
      "min": [
        0.5109443664550781,
        0.04640781879425049
      ],
      "type": "VEC2"
    },
    {
      "bufferView": 1,
      "byteOffset": 15360,
      "componentType": 5126,
      "count": 320,
      "max": [
        1.9751588106155396,
        0.9859939217567444
      ],
      "min": [
        0.5109443664550781,
        0.04640781879425049
      ],
      "type": "VEC2"
    },
    {
      "bufferView": 1,
      "byteOffset": 17920,
      "componentType": 5126,
      "count": 320,
      "max": [
        1.9751588106155396,
        0.9859939217567444
      ],
      "min": [
        0.5109443664550781,
        0.04640781879425049
      ],
      "type": "VEC2"
    },
    {
      "bufferView": 1,
      "byteOffset": 20480,
      "componentType": 5126,
      "count": 320,
      "max": [
        1.9751588106155396,
        0.9859939217567444
      ],
      "min": [
        0.5109443664550781,
        0.04640781879425049
      ],
      "type": "VEC2"
    },
    {
      "bufferView": 1,
      "byteOffset": 23040,
      "componentType": 5126,
      "count": 320,
      "max": [
        1.9751588106155396,
        0.9859939217567444
      ],
      "min": [
        0.5109443664550781,
        0.04640781879425049
      ],
      "type": "VEC2"
    },
    {
      "bufferView": 0,
      "componentType": 5125,
      "count": 516,
      "type": "SCALAR"
    },
    {
      "bufferView": 2,
      "byteOffset": 7680,
      "componentType": 5126,
      "count": 402,
      "max": [
        1.0,
        0.9169684052467346,
        1.0000001192092896
      ],
      "min": [
        -1.000000238418579,
        -1.0,
        -1.0000004768371582
      ],
      "type": "VEC3"
    },
    {
      "bufferView": 2,
      "byteOffset": 12504,
      "componentType": 5126,
      "count": 402,
      "max": [
        1.0,
        1.0,
        1.0
      ],
      "min": [
        -1.0,
        -1.0,
        -1.0
      ],
      "type": "VEC3"
    },
    {
      "bufferView": 1,
      "byteOffset": 25600,
      "componentType": 5126,
      "count": 402,
      "max": [
        0.4902409315109253,
        0.9873196482658386
      ],
      "min": [
        0.007683287374675274,
        0.008609771728515625
      ],
      "type": "VEC2"
    },
    {
      "bufferView": 1,
      "byteOffset": 28816,
      "componentType": 5126,
      "count": 402,
      "max": [
        0.4902409315109253,
        0.9873196482658386
      ],
      "min": [
        0.007683287374675274,
        0.008609771728515625
      ],
      "type": "VEC2"
    },
    {
      "bufferView": 1,
      "byteOffset": 32032,
      "componentType": 5126,
      "count": 402,
      "max": [
        0.4902409315109253,
        0.9873196482658386
      ],
      "min": [
        0.007683287374675274,
        0.008609771728515625
      ],
      "type": "VEC2"
    },
    {
      "bufferView": 1,
      "byteOffset": 35248,
      "componentType": 5126,
      "count": 402,
      "max": [
        0.4902409315109253,
        0.9873196482658386
      ],
      "min": [
        0.007683287374675274,
        0.008609771728515625
      ],
      "type": "VEC2"
    },
    {
      "bufferView": 1,
      "byteOffset": 38464,
      "componentType": 5126,
      "count": 402,
      "max": [
        0.4902409315109253,
        0.9873196482658386
      ],
      "min": [
        0.007683287374675274,
        0.008609771728515625
      ],
      "type": "VEC2"
    },
    {
      "bufferView": 1,
      "byteOffset": 41680,
      "componentType": 5126,
      "count": 402,
      "max": [
        0.4902409315109253,
        0.9873196482658386
      ],
      "min": [
        0.007683287374675274,
        0.008609771728515625
      ],
      "type": "VEC2"
    },
    {
      "bufferView": 1,
      "byteOffset": 44896,
      "componentType": 5126,
      "count": 402,
      "max": [
        0.4902409315109253,
        0.9873196482658386
      ],
      "min": [
        0.007683287374675274,
        0.008609771728515625
      ],
      "type": "VEC2"
    },
    {
      "bufferView": 1,
      "byteOffset": 48112,
      "componentType": 5126,
      "count": 402,
      "max": [
        0.4902409315109253,
        0.9873196482658386
      ],
      "min": [
        0.007683287374675274,
        0.008609771728515625
      ],
      "type": "VEC2"
    },
    {
      "bufferView": 1,
      "byteOffset": 51328,
      "componentType": 5126,
      "count": 402,
      "max": [
        0.4902409315109253,
        0.9873196482658386
      ],
      "min": [
        0.007683287374675274,
        0.008609771728515625
      ],
      "type": "VEC2"
    },
    {
      "bufferView": 1,
      "byteOffset": 54544,
      "componentType": 5126,
      "count": 402,
      "max": [
        0.4902409315109253,
        0.9873196482658386
      ],
      "min": [
        0.007683287374675274,
        0.008609771728515625
      ],
      "type": "VEC2"
    },
    {
      "bufferView": 0,
      "byteOffset": 2064,
      "componentType": 5125,
      "count": 2280,
      "type": "SCALAR"
    },
    {
      "bufferView": 2,
      "byteOffset": 17328,
      "componentType": 5126,
      "count": 320,
      "max": [
        2.896484136581421,
        2.9591848850250244,
        2.359410047531128
      ],
      "min": [
        -2.896484136581421,
        1.3597309589385986e-06,
        -2.359410047531128
      ],
      "type": "VEC3"
    },
    {
      "bufferView": 2,
      "byteOffset": 21168,
      "componentType": 5126,
      "count": 320,
      "max": [
        1.0,
        0.913882315158844,
        1.0
      ],
      "min": [
        -1.0,
        -1.0,
        -1.0
      ],
      "type": "VEC3"
    },
    {
      "bufferView": 1,
      "byteOffset": 57760,
      "componentType": 5126,
      "count": 320,
      "max": [
        1.9751588106155396,
        0.9859939217567444
      ],
      "min": [
        0.5109443664550781,
        0.04640781879425049
      ],
      "type": "VEC2"
    },
    {
      "bufferView": 1,
      "byteOffset": 60320,
      "componentType": 5126,
      "count": 320,
      "max": [
        1.9751588106155396,
        0.9859939217567444
      ],
      "min": [
        0.5109443664550781,
        0.04640781879425049
      ],
      "type": "VEC2"
    },
    {
      "bufferView": 1,
      "byteOffset": 62880,
      "componentType": 5126,
      "count": 320,
      "max": [
        1.9751588106155396,
        0.9859939217567444
      ],
      "min": [
        0.5109443664550781,
        0.04640781879425049
      ],
      "type": "VEC2"
    },
    {
      "bufferView": 1,
      "byteOffset": 65440,
      "componentType": 5126,
      "count": 320,
      "max": [
        1.9751588106155396,
        0.9859939217567444
      ],
      "min": [
        0.5109443664550781,
        0.04640781879425049
      ],
      "type": "VEC2"
    },
    {
      "bufferView": 1,
      "byteOffset": 68000,
      "componentType": 5126,
      "count": 320,
      "max": [
        1.9751588106155396,
        0.9859939217567444
      ],
      "min": [
        0.5109443664550781,
        0.04640781879425049
      ],
      "type": "VEC2"
    },
    {
      "bufferView": 1,
      "byteOffset": 70560,
      "componentType": 5126,
      "count": 320,
      "max": [
        1.9751588106155396,
        0.9859939217567444
      ],
      "min": [
        0.5109443664550781,
        0.04640781879425049
      ],
      "type": "VEC2"
    },
    {
      "bufferView": 1,
      "byteOffset": 73120,
      "componentType": 5126,
      "count": 320,
      "max": [
        1.9751588106155396,
        0.9859939217567444
      ],
      "min": [
        0.5109443664550781,
        0.04640781879425049
      ],
      "type": "VEC2"
    },
    {
      "bufferView": 1,
      "byteOffset": 75680,
      "componentType": 5126,
      "count": 320,
      "max": [
        1.9751588106155396,
        0.9859939217567444
      ],
      "min": [
        0.5109443664550781,
        0.04640781879425049
      ],
      "type": "VEC2"
    },
    {
      "bufferView": 1,
      "byteOffset": 78240,
      "componentType": 5126,
      "count": 320,
      "max": [
        1.9751588106155396,
        0.9859939217567444
      ],
      "min": [
        0.5109443664550781,
        0.04640781879425049
      ],
      "type": "VEC2"
    },
    {
      "bufferView": 1,
      "byteOffset": 80800,
      "componentType": 5126,
      "count": 320,
      "max": [
        1.9751588106155396,
        0.9859939217567444
      ],
      "min": [
        0.5109443664550781,
        0.04640781879425049
      ],
      "type": "VEC2"
    },
    {
      "bufferView": 0,
      "byteOffset": 11184,
      "componentType": 5125,
      "count": 516,
      "type": "SCALAR"
    }
  ],
  "asset": {
    "extras": {
      "author": "alike03 (https://sketchfab.com/alike03)",
      "license": "CC-BY-4.0 (http://creativecommons.org/licenses/by/4.0/)",
      "source": "https://sketchfab.com/3d-models/destiny-simple-ghost-cbaa0a8a61ff41d48a7b3b112366b503",
      "title": "Destiny - Simple Ghost"
    },
    "generator": "Sketchfab-12.66.0",
    "version": "2.0"
  },
  "bufferViews": [
    {
      "buffer": 0,
      "byteLength": 13248,
      "name": "floatBufferViews",
      "target": 34963
    },
    {
      "buffer": 0,
      "byteLength": 83360,
      "byteOffset": 13248,
      "byteStride": 8,
      "name": "floatBufferViews",
      "target": 34962
    },
    {
      "buffer": 0,
      "byteLength": 25008,
      "byteOffset": 96608,
      "byteStride": 12,
      "name": "floatBufferViews",
      "target": 34962
    }
  ],
  "buffers": [
    {
      "byteLength": 121616,
      "uri": "scene.bin"
    }
  ],
  "images": [
    {
      "uri": "textures/Material_7_baseColor.png"
    }
  ],
  "materials": [
    {
      "doubleSided": true,
      "name": "Material_7",
      "pbrMetallicRoughness": {
        "baseColorTexture": {
          "index": 0
        },
        "metallicFactor": 0.0
      }
    },
    {
      "doubleSided": true,
      "name": "Material_5",
      "pbrMetallicRoughness": {
        "baseColorTexture": {
          "index": 0
        },
        "metallicFactor": 0.0
      }
    },
    {
      "doubleSided": true,
      "name": "Material_6",
      "pbrMetallicRoughness": {
        "baseColorTexture": {
          "index": 0
        },
        "metallicFactor": 0.0
      }
    }
  ],
  "meshes": [
    {
      "name": "node_id11_Material_7_0",
      "primitives": [
        {
          "attributes": {
            "NORMAL": 1,
            "POSITION": 0,
            "TEXCOORD_0": 2,
            "TEXCOORD_1": 3,
            "TEXCOORD_2": 4,
            "TEXCOORD_3": 5,
            "TEXCOORD_4": 6,
            "TEXCOORD_5": 7,
            "TEXCOORD_6": 8,
            "TEXCOORD_7": 9,
            "TEXCOORD_8": 10,
            "TEXCOORD_9": 11
          },
          "indices": 12,
          "material": 0,
          "mode": 4
        }
      ]
    },
    {
      "name": "node_id6_Material_5_0",
      "primitives": [
        {
          "attributes": {
            "NORMAL": 14,
            "POSITION": 13,
            "TEXCOORD_0": 15,
            "TEXCOORD_1": 16,
            "TEXCOORD_2": 17,
            "TEXCOORD_3": 18,
            "TEXCOORD_4": 19,
            "TEXCOORD_5": 20,
            "TEXCOORD_6": 21,
            "TEXCOORD_7": 22,
            "TEXCOORD_8": 23,
            "TEXCOORD_9": 24
          },
          "indices": 25,
          "material": 1,
          "mode": 4
        }
      ]
    },
    {
      "name": "node_id7_Material_6_0",
      "primitives": [
        {
          "attributes": {
            "NORMAL": 27,
            "POSITION": 26,
            "TEXCOORD_0": 28,
            "TEXCOORD_1": 29,
            "TEXCOORD_2": 30,
            "TEXCOORD_3": 31,
            "TEXCOORD_4": 32,
            "TEXCOORD_5": 33,
            "TEXCOORD_6": 34,
            "TEXCOORD_7": 35,
            "TEXCOORD_8": 36,
            "TEXCOORD_9": 37
          },
          "indices": 38,
          "material": 2,
          "mode": 4
        }
      ]
    }
  ],
  "nodes": [
    {
      "children": [
        1
      ],
      "matrix": [
        1.0,
        0.0,
        0.0,
        0.0,
        0.0,
        2.220446049250313e-16,
        -1.0,
        0.0,
        0.0,
        1.0,
        2.220446049250313e-16,
        0.0,
        0.0,
        0.0,
        0.0,
        1.0
      ],
      "name": "Sketchfab_model"
    },
    {
      "children": [
        2
      ],
      "matrix": [
        1.0,
        0.0,
        0.0,
        0.0,
        0.0,
        0.0,
        1.0,
        0.0,
        0.0,
        -1.0,
        0.0,
        0.0,
        0.0,
        0.0,
        0.0,
        1.0
      ],
      "name": "9deb0c9c7ecc43538f9480525e795278.fbx"
    },
    {
      "children": [
        3
      ],
      "name": "RootNode"
    },
    {
      "children": [
        4,
        6,
        8
      ],
      "matrix": [
        0.000999865499233207,
        0.0,
        1.6403610518254182e-05,
        0.0,
        0.0,
        0.0010000000474974513,
        0.0,
        0.0,
        -1.6403610518254182e-05,
        0.0,
        0.000999865499233207,
        0.0,
        0.0041993712075054646,
        0.0,
        3.5003664379473776e-05,
        1.0
      ],
      "name": "node_id11"
    },
    {
      "children": [
        5
      ],
      "matrix": [
        86.51036071777344,
        0.0,
        -0.0,
        0.0,
        0.0,
        86.51036071777344,
        0.0,
        0.0,
        0.0,
        0.0,
        86.51036071777344,
        0.0,
        3.84183177349999e-14,
        -0.00013805521302856505,
        256.0,
        1.0
      ],
      "name": "Object_4"
    },
    {
      "mesh": 0,
      "name": "node_id11_Material_7_0"
    },
    {
      "children": [
        7
      ],
      "matrix": [
        112.46346282958984,
        2.1659675071298793e-32,
        -2.2204460492503128e-16,
        0.0,
        2.2204460492503084e-16,
        6.703345126746628e-06,
        112.46346282958966,
        0.0,
        1.3234890557605942e-23,
        -112.46346282958966,
        6.703345126746628e-06,
        0.0,
        3.8191672047105385e-14,
        -0.00013805521302856505,
        256.0,
        1.0
      ],
      "name": "node_id6"
    },
    {
      "mesh": 1,
      "name": "node_id6_Material_5_0"
    },
    {
      "children": [
        9
      ],
      "matrix": [
        -86.51036071777344,
        1.0594463634610415e-14,
        0.0,
        0.0,
        -1.0594463634610415e-14,
        -86.51036071777344,
        -2.465190328815662e-32,
        0.0,
        -3.0189874454731115e-48,
        -2.465190328815662e-32,
        86.51036071777344,
        0.0,
        -3.8191672047105385e-14,
        0.00013805521302856505,
        256.0,
        1.0
      ],
      "name": "node_id7"
    },
    {
      "mesh": 2,
      "name": "node_id7_Material_6_0"
    }
  ],
  "samplers": [
    {
      "magFilter": 9729,
      "minFilter": 9987,
      "wrapS": 10497,
      "wrapT": 10497
    }
  ],
  "scene": 0,
  "scenes": [
    {
      "name": "Sketchfab_Scene",
      "nodes": [
        0
      ]
    }
  ],
  "textures": [
    {
      "sampler": 0,
      "source": 0
    }
  ]
}
