{
  "accessors": [
    {
      "bufferView": 3,
      "componentType": 5126,
      "count": 1663,
      "max": [
        0.5009695887565613,
        0.43406233191490173,
        0.1903866082429886
      ],
      "min": [
        -0.5030555129051208,
        -0.0018474579555913806,
        -0.1910034865140915
      ],
      "type": "VEC3"
    },
    {
      "bufferView": 3,
      "byteOffset": 19956,
      "componentType": 5126,
      "count": 1663,
      "max": [
        0.997179388999939,
        0.9998539686203003,
        0.9999996423721313
      ],
      "min": [
        -0.9971907138824463,
        -0.9999986886978149,
        -0.9999901056289673
      ],
      "type": "VEC3"
    },
    {
      "bufferView": 2,
      "componentType": 5126,
      "count": 1663,
      "max": [
        0.9404650330543518,
        0.9642535448074341
      ],
      "min": [
        0.01663029007613659,
        0.06051214411854744
      ],
      "type": "VEC2"
    },
    {
      "bufferView": 1,
      "componentType": 5125,
      "count": 9438,
      "type": "SCALAR"
    },
    {
      "bufferView": 3,
      "byteOffset": 39912,
      "componentType": 5126,
      "count": 1663,
      "max": [
        0.5019609928131104,
        0.4350596070289612,
        0.19138658046722412
      ],
      "min": [
        -0.5040469169616699,
        -0.0028250268660485744,
        -0.19199804961681366
      ],
      "type": "VEC3"
    },
    {
      "bufferView": 3,
      "byteOffset": 59868,
      "componentType": 5126,
      "count": 1663,
      "max": [
        0.9971639513969421,
        0.9999986886978149,
        0.9999895095825195
      ],
      "min": [
        -0.9971503019332886,
        -0.9998539686203003,
        -0.9999997615814209
      ],
      "type": "VEC3"
    },
    {
      "bufferView": 2,
      "byteOffset": 13304,
      "componentType": 5126,
      "count": 1663,
      "max": [
        0.9404650330543518,
        0.9642535448074341
      ],
      "min": [
        0.01663029007613659,
        0.06051214411854744
      ],
      "type": "VEC2"
    },
    {
      "bufferView": 1,
      "byteOffset": 37752,
      "componentType": 5125,
      "count": 9438,
      "type": "SCALAR"
    },
    {
      "bufferView": 5,
      "componentType": 5126,
      "count": 19,
      "max": [
        1.0,
        0.9988188743591309,
        0.6021946668624878,
        0.0,
        0.6021948456764221,
        1.0,
        0.9976390600204468,
        0.0,
        0.9988186955451965,
        0.20872850716114044,
        1.0,
        0.0,
        0.1035991758108139,
        0.1503305584192276,
        0.15000201761722565,
        1.0
      ],
      "min": [
        0.0023609863128513098,
        -0.9988188743591309,
        -0.40928614139556885,
        0.0,
        -0.4092862010002136,
        -0.9677000045776367,
        0.0,
        0.0,
        -0.9988186955451965,
        -0.23795033991336823,
        -0.9676998853683472,
        0.0,
        -0.15342125296592712,
        -0.46256253123283386,
        -0.3734664022922516,
        1.0
      ],
      "type": "MAT4"
    },
    {
      "bufferView": 0,
      "componentType": 5123,
      "count": 1663,
      "type": "VEC4"
    },
    {
      "bufferView": 4,
      "componentType": 5126,
      "count": 1663,
      "max": [
        1.0,
        0.49763748049736023,
        0.29133340716362,
        0.19576378166675568
      ],
      "min": [
        0.3016398549079895,
        0.0,
        0.0,
        0.0
      ],
      "type": "VEC4"
    },
    {
      "bufferView": 0,
      "byteOffset": 13304,
      "componentType": 5123,
      "count": 1663,
      "type": "VEC4"
    },
    {
      "bufferView": 4,
      "byteOffset": 26608,
      "componentType": 5126,
      "count": 1663,
      "max": [
        1.0,
        0.49763748049736023,
        0.29133340716362,
        0.19576378166675568
      ],
      "min": [
        0.3016398549079895,
        0.0,
        0.0,
        0.0
      ],
      "type": "VEC4"
    }
  ],
  "asset": {
    "extras": {
      "author": "woomie (https://sketchfab.com/woomie)",
      "license": "CC-BY-4.0 (http://creativecommons.org/licenses/by/4.0/)",
      "source": "https://sketchfab.com/3d-models/sanrio-cinnamoroll-4c203349efb6419a937067c30be858b6",
      "title": "Sanrio Cinnamoroll"
    },
    "generator": "Sketchfab-15.7.0",
    "version": "2.0"
  },
  "bufferViews": [
    {
      "buffer": 0,
      "byteLength": 26608,
      "byteStride": 8,
      "name": "shortBufferViews",
      "target": 34962
    },
    {
      "buffer": 0,
      "byteLength": 75504,
      "byteOffset": 26608,
      "name": "floatBufferViews",
      "target": 34963
    },
    {
      "buffer": 0,
      "byteLength": 26608,
      "byteOffset": 102112,
      "byteStride": 8,
      "name": "floatBufferViews",
      "target": 34962
    },
    {
      "buffer": 0,
      "byteLength": 79824,
      "byteOffset": 128720,
      "byteStride": 12,
      "name": "floatBufferViews",
      "target": 34962
    },
    {
      "buffer": 0,
      "byteLength": 53216,
      "byteOffset": 208544,
      "byteStride": 16,
      "name": "floatBufferViews",
      "target": 34962
    },
    {
      "buffer": 0,
      "byteLength": 1216,
      "byteOffset": 261760,
      "name": "floatBufferViews"
    }
  ],
  "buffers": [
    {
      "byteLength": 262976,
      "uri": "scene.bin"
    }
  ],
  "extensionsUsed": [
    "KHR_materials_specular"
  ],
  "images": [
    {
      "uri": "textures/Cinnamaroll_baseColor.png"
    }
  ],
  "materials": [
    {
      "doubleSided": true,
      "extensions": {
        "KHR_materials_specular": {
          "specularColorFactor": [
            1.0,
            1.0,
            1.0
          ],
          "specularFactor": 0.0
        }
      },
      "name": "Cinnamaroll",
      "pbrMetallicRoughness": {
        "baseColorTexture": {
          "index": 0
        },
        "metallicFactor": 0.0,
        "roughnessFactor": 0.8239417257461427
      }
    },
    {
      "extensions": {
        "KHR_materials_specular": {
          "specularColorFactor": [
            1.0,
            1.0,
            1.0
          ],
          "specularFactor": 0.0
        }
      },
      "name": "Outline",
      "pbrMetallicRoughness": {
        "metallicFactor": 0.0
      }
    }
  ],
  "meshes": [
    {
      "name": "Body_Cinnamaroll_0",
      "primitives": [
        {
          "attributes": {
            "JOINTS_0": 9,
            "NORMAL": 1,
            "POSITION": 0,
            "TEXCOORD_0": 2,
            "WEIGHTS_0": 10
          },
          "indices": 3,
          "material": 0,
          "mode": 4
        }
      ]
    },
    {
      "name": "Body_Outline_0",
      "primitives": [
        {
          "attributes": {
            "JOINTS_0": 11,
            "NORMAL": 5,
            "POSITION": 4,
            "TEXCOORD_0": 6,
            "WEIGHTS_0": 12
          },
          "indices": 7,
          "material": 1,
          "mode": 4
        }
      ]
    }
  ],
  "nodes": [
    {
      "children": [
        1
      ],
      "matrix": [
        1.0,
        0.0,
        0.0,
        0.0,
        0.0,
        2.220446049250313e-16,
        -1.0,
        0.0,
        0.0,
        1.0,
        2.220446049250313e-16,
        0.0,
        0.0,
        0.0,
        0.0,
        1.0
      ],
      "name": "Sketchfab_model"
    },
    {
      "children": [
        2
      ],
      "matrix": [
        1.0,
        0.0,
        0.0,
        0.0,
        0.0,
        0.0,
        1.0,
        0.0,
        0.0,
        -1.0,
        0.0,
        0.0,
        0.0,
        0.0,
        0.0,
        1.0
      ],
      "name": "Cinnamoroll.fbx"
    },
    {
      "children": [
        3
      ],
      "name": "RootNode"
    },
    {
      "children": [
        4
      ],
      "matrix": [
        1.0,
        0.0,
        0.0,
        0.0,
        0.0,
        -1.6292067939183141e-07,
        -0.9999999999999868,
        0.0,
        0.0,
        0.9999999999999868,
        -1.6292067939183141e-07,
        0.0,
        0.0,
        0.0,
        0.0,
        1.0
      ],
      "name": "Armature"
    },
    {
      "children": [
        5,
        25,
        26,
        24
      ],
      "name": "Object_4"
    },
    {
      "children": [
        6
      ],
      "name": "_rootJoint"
    },
    {
      "children": [
        7,
        14,
        15,
        16,
        17,
        18
      ],
      "name": "Body_00",
      "rotation": [
        0.7071068286895752,
        0.0,
        0.0,
        0.7071067094802856
      ],
      "translation": [
        0.0,
        0.0,
        0.06057369336485863
      ]
    },
    {
      "children": [
        8,
        11
      ],
      "name": "Head_01",
      "translation": [
        0.0,
        0.1381540298461914,
        0.0
      ]
    },
    {
      "children": [
        9
      ],
      "name": "Ear01_L_02",
      "rotation": [
        0.63365238904953,
        0.4818061590194702,
        0.4818059504032135,
        -0.3663475215435028
      ],
      "translation": [
        0.17027829587459564,
        0.1562419831752777,
        0.0
      ]
    },
    {
      "children": [
        10
      ],
      "name": "Ear02_L_03",
      "rotation": [
        0.10935693234205246,
        0.11008314788341522,
        -0.017603382468223572,
        0.9877312779426575
      ],
      "scale": [
        0.9999999403953552,
        1.0,
        0.9999999403953552
      ],
      "translation": [
        7.450580596923828e-09,
        0.10035247355699539,
        0.0
      ]
    },
    {
      "name": "Ear03_L_04",
      "rotation": [
        0.19150064885616302,
        0.1899043470621109,
        0.028195559978485107,
        0.9625325202941895
      ],
      "scale": [
        1.0,
        1.0,
        0.9999999403953552
      ],
      "translation": [
        -6.406044583684434e-10,
        0.10941828042268753,
        -3.745096677221227e-09
      ]
    },
    {
      "children": [
        12
      ],
      "name": "Ear01_R_05",
      "rotation": [
        0.63365238904953,
        -0.4818061590194702,
        -0.4818059504032135,
        -0.3663475215435028
      ],
      "translation": [
        -0.17027829587459564,
        0.1562419831752777,
        0.0
      ]
    },
    {
      "children": [
        13
      ],
      "name": "Ear02_R_06",
      "rotation": [
        0.10935693234205246,
        -0.11008314788341522,
        0.017603382468223572,
        0.9877312779426575
      ],
      "scale": [
        0.9999999403953552,
        1.0,
        0.9999999403953552
      ],
      "translation": [
        -7.450580596923828e-09,
        0.10035247355699539,
        0.0
      ]
    },
    {
      "name": "Ear03_R_07",
      "rotation": [
        0.19150064885616302,
        -0.1899043470621109,
        -0.028195559978485107,
        0.9625325202941895
      ],
      "scale": [
        1.0,
        1.0,
        0.9999999403953552
      ],
      "translation": [
        6.406044583684434e-10,
        0.10941828042268753,
        -3.745096677221227e-09
      ]
    },
    {
      "name": "Right arm_08",
      "rotation": [
        0.5595324039459229,
        -0.4964432418346405,
        -0.4964433014392853,
        -0.44046750664711
      ],
      "scale": [
        1.0000001192092896,
        0.9999999403953552,
        1.0
      ],
      "translation": [
        -0.1076754480600357,
        0.10448610782623291,
        0.01435854285955429
      ]
    },
    {
      "name": "Left arm_09",
      "rotation": [
        0.5595324039459229,
        0.4964432418346405,
        0.4964433014392853,
        -0.44046750664711
      ],
      "scale": [
        1.0000001192092896,
        0.9999999403953552,
        1.0
      ],
      "translation": [
        0.1076754480600357,
        0.10448610782623291,
        0.01435854285955429
      ]
    },
    {
      "name": "Left leg_010",
      "rotation": [
        0.9454250335693359,
        0.22714895009994507,
        0.22714850306510925,
        -0.054574787616729736
      ],
      "scale": [
        1.0000001192092896,
        1.0000001192092896,
        1.0
      ],
      "translation": [
        0.07929200679063797,
        -0.013505250215530396,
        0.0028060737531632185
      ]
    },
    {
      "name": "Right leg_011",
      "rotation": [
        0.9454250335693359,
        -0.22714895009994507,
        -0.22714850306510925,
        -0.054574787616729736
      ],
      "scale": [
        1.0000001192092896,
        1.0000001192092896,
        1.0
      ],
      "translation": [
        -0.07929200679063797,
        -0.013505250215530396,
        0.0028060737531632185
      ]
    },
    {
      "children": [
        19
      ],
      "name": "Tail01_012",
      "rotation": [
        -0.19761405885219574,
        -0.29755380749702454,
        -0.2975538372993469,
        0.8853655457496643
      ],
      "scale": [
        0.9999999403953552,
        1.0,
        1.0000001192092896
      ],
      "translation": [
        0.020560525357723236,
        0.014305491000413895,
        -0.13040602207183838
      ]
    },
    {
      "children": [
        20
      ],
      "name": "Tail02_013",
      "rotation": [
        0.07802169024944305,
        0.38748699426651,
        0.5426512956619263,
        0.7411451935768127
      ],
      "scale": [
        1.0000001192092896,
        1.0000001192092896,
        1.0
      ],
      "translation": [
        -1.4901161193847656e-08,
        0.06140851974487305,
        -1.30385160446167e-08
      ]
    },
    {
      "children": [
        21
      ],
      "name": "Tail03_014",
      "rotation": [
        -0.5018353462219238,
        0.37505459785461426,
        0.23606950044631958,
        0.7428098917007446
      ],
      "scale": [
        0.9999998807907104,
        0.9999999403953552,
        0.9999999403953552
      ],
      "translation": [
        -5.587935447692871e-09,
        0.05138187110424042,
        3.725290298461914e-09
      ]
    },
    {
      "children": [
        22
      ],
      "name": "Tail04_015",
      "rotation": [
        -0.49229907989501953,
        0.4062974452972412,
        -0.300819993019104,
        0.7085699439048767
      ],
      "scale": [
        0.9999999403953552,
        0.9999998807907104,
        1.0
      ],
      "translation": [
        -1.5133991837501526e-08,
        0.04977000504732132,
        -3.026798367500305e-09
      ]
    },
    {
      "children": [
        23
      ],
      "name": "Tail05_016",
      "rotation": [
        0.05022062361240387,
        0.48018819093704224,
        -0.5196231603622437,
        0.7049034833908081
      ],
      "scale": [
        1.0,
        1.000000238418579,
        1.0000001192092896
      ],
      "translation": [
        -9.313225746154785e-10,
        0.0384736992418766,
        -8.847564458847046e-09
      ]
    },
    {
      "name": "Tail06_017",
      "rotation": [
        0.811974287033081,
        0.4512767195701599,
        0.34417015314102173,
        0.1363597959280014
      ],
      "scale": [
        0.9999998211860657,
        0.9999998807907104,
        0.9999997615814209
      ],
      "translation": [
        2.3283064365386963e-10,
        0.03923621401190758,
        4.6566128730773926e-09
      ]
    },
    {
      "matrix": [
        1.0,
        0.0,
        0.0,
        0.0,
        0.0,
        6.123233995736766e-17,
        -1.0,
        0.0,
        0.0,
        1.0,
        6.123233995736766e-17,
        0.0,
        0.0,
        0.0,
        0.0,
        1.0
      ],
      "name": "Object_24"
    },
    {
      "mesh": 0,
      "name": "Object_25",
      "skin": 0
    },
    {
      "mesh": 1,
      "name": "Object_26",
      "skin": 0
    }
  ],
  "samplers": [
    {
      "magFilter": 9729,
      "minFilter": 9987,
      "wrapS": 10497,
      "wrapT": 10497
    }
  ],
  "scene": 0,
  "scenes": [
    {
      "name": "Sketchfab_Scene",
      "nodes": [
        0
      ]
    }
  ],
  "skins": [
    {
      "inverseBindMatrices": 8,
      "joints": [
        5,
        6,
        7,
        8,
        9,
        10,
        11,
        12,
        13,
        14,
        15,
        16,
        17,
        18,
        19,
        20,
        21,
        22,
        23
      ],
      "skeleton": 5
    }
  ],
  "textures": [
    {
      "sampler": 0,
      "source": 0
    }
  ]
}
