{
  "accessors": [
    {
      "bufferView": 2,
      "componentType": 5126,
      "count": 5036,
      "max": [
        1.1661319732666016,
        -1.4157960414886475,
        0.9857590198516846
      ],
      "min": [
        -1.1750789880752563,
        -1.4392980337142944,
        0.023219000548124313
      ],
      "type": "VEC3"
    },
    {
      "bufferView": 2,
      "byteOffset": 60432,
      "componentType": 5126,
      "count": 5036,
      "max": [
        0.000300000625429675,
        0.9999034404754639,
        -0.013900048099458218
      ],
      "min": [
        -0.00039999966975301504,
        0.9998964071273804,
        -0.01439994852989912
      ],
      "type": "VEC3"
    },
    {
      "bufferView": 1,
      "componentType": 5126,
      "count": 5036,
      "max": [
        0.0,
        0.0
      ],
      "min": [
        0.0,
        0.0
      ],
      "type": "VEC2"
    },
    {
      "bufferView": 0,
      "componentType": 5125,
      "count": 19200,
      "type": "SCALAR"
    },
    {
      "bufferView": 2,
      "byteOffset": 120864,
      "componentType": 5126,
      "count": 1906,
      "max": [
        0.2986910045146942,
        -1.2378900051116943,
        0.4644300043582916
      ],
      "min": [
        -0.3076379895210266,
        -1.3342499732971191,
        0.2864319980144501
      ],
      "type": "VEC3"
    },
    {
      "bufferView": 2,
      "byteOffset": 143736,
      "componentType": 5126,
      "count": 1906,
      "max": [
        0.9938004612922668,
        0.99334716796875,
        0.9975457787513733
      ],
      "min": [
        -0.9938004612922668,
        -0.9933598041534424,
        -0.9975457787513733
      ],
      "type": "VEC3"
    },
    {
      "bufferView": 1,
      "byteOffset": 40288,
      "componentType": 5126,
      "count": 1906,
      "max": [
        0.875,
        0.9895830154418945
      ],
      "min": [
        0.125,
        0.0
      ],
      "type": "VEC2"
    },
    {
      "bufferView": 0,
      "byteOffset": 76800,
      "componentType": 5125,
      "count": 10752,
      "type": "SCALAR"
    },
    {
      "bufferView": 2,
      "byteOffset": 166608,
      "componentType": 5126,
      "count": 3460,
      "max": [
        1.6827490329742432,
        1.563707947731018,
        0.5414190292358398
      ],
      "min": [
        -1.708804965019226,
        0.3137669861316681,
        0.0032470000442117453
      ],
      "type": "VEC3"
    },
    {
      "bufferView": 2,
      "byteOffset": 208128,
      "componentType": 5126,
      "count": 3460,
      "max": [
        0.9999942779541016,
        0.9741795659065247,
        0.9999808073043823
      ],
      "min": [
        -0.9999942779541016,
        -0.999902606010437,
        -0.9998857975006104
      ],
      "type": "VEC3"
    },
    {
      "bufferView": 1,
      "byteOffset": 55536,
      "componentType": 5126,
      "count": 3460,
      "max": [
        0.0,
        0.0
      ],
      "min": [
        0.0,
        0.0
      ],
      "type": "VEC2"
    },
    {
      "bufferView": 0,
      "byteOffset": 119808,
      "componentType": 5125,
      "count": 20736,
      "type": "SCALAR"
    },
    {
      "bufferView": 2,
      "byteOffset": 249648,
      "componentType": 5126,
      "count": 6558,
      "max": [
        1.1713110208511353,
        -1.206413984298706,
        0.9997090101242065
      ],
      "min": [
        -1.1713110208511353,
        -1.3598029613494873,
        0.006603999994695187
      ],
      "type": "VEC3"
    },
    {
      "bufferView": 2,
      "byteOffset": 328344,
      "componentType": 5126,
      "count": 6558,
      "max": [
        0.9928805828094482,
        0.9999954700469971,
        0.9997969269752502
      ],
      "min": [
        -0.9928929209709167,
        -0.9999819993972778,
        -0.9998061060905457
      ],
      "type": "VEC3"
    },
    {
      "bufferView": 3,
      "componentType": 5126,
      "count": 6558,
      "max": [
        0.9759805798530579,
        0.999997615814209,
        0.9944167137145996,
        1.0
      ],
      "min": [
        -0.9759251475334167,
        -0.9999947547912598,
        -0.9939541220664978,
        -1.0
      ],
      "type": "VEC4"
    },
    {
      "bufferView": 1,
      "byteOffset": 83216,
      "componentType": 5126,
      "count": 6558,
      "max": [
        0.4870240092277527,
        0.9615179896354675
      ],
      "min": [
        0.008905000053346157,
        0.007242999970912933
      ],
      "type": "VEC2"
    },
    {
      "bufferView": 0,
      "byteOffset": 202752,
      "componentType": 5125,
      "count": 33312,
      "type": "SCALAR"
    },
    {
      "bufferView": 2,
      "byteOffset": 407040,
      "componentType": 5126,
      "count": 15138,
      "max": [
        1.4057589769363403,
        -1.3319809436798096,
        0.5914909839630127
      ],
      "min": [
        -1.4147050380706787,
        -1.4636919498443604,
        0.4595690071582794
      ],
      "type": "VEC3"
    },
    {
      "bufferView": 2,
      "byteOffset": 588696,
      "componentType": 5126,
      "count": 15138,
      "max": [
        1.0,
        0.9999303817749023,
        1.0
      ],
      "min": [
        -1.0,
        -0.9999327659606934,
        -0.9999998807907104
      ],
      "type": "VEC3"
    },
    {
      "bufferView": 1,
      "byteOffset": 135680,
      "componentType": 5126,
      "count": 15138,
      "max": [
        0.0,
        0.0
      ],
      "min": [
        0.0,
        0.0
      ],
      "type": "VEC2"
    },
    {
      "bufferView": 0,
      "byteOffset": 336000,
      "componentType": 5125,
      "count": 50688,
      "type": "SCALAR"
    },
    {
      "bufferView": 2,
      "byteOffset": 770352,
      "componentType": 5126,
      "count": 35890,
      "max": [
        1.5547289848327637,
        -0.2919529974460602,
        0.5074589848518372
      ],
      "min": [
        -1.5807850360870361,
        -1.1275180578231812,
        0.4457570016384125
      ],
      "type": "VEC3"
    },
    {
      "bufferView": 2,
      "byteOffset": 1201032,
      "componentType": 5126,
      "count": 35890,
      "max": [
        1.0,
        0.999985933303833,
        0.999995231628418
      ],
      "min": [
        -1.0,
        -0.999985933303833,
        -0.9999666213989258
      ],
      "type": "VEC3"
    },
    {
      "bufferView": 1,
      "byteOffset": 256784,
      "componentType": 5126,
      "count": 35890,
      "max": [
        80.3846206665039,
        1.0
      ],
      "min": [
        0.0,
        -0.019687000662088394
      ],
      "type": "VEC2"
    },
    {
      "bufferView": 0,
      "byteOffset": 538752,
      "componentType": 5125,
      "count": 213576,
      "type": "SCALAR"
    },
    {
      "bufferView": 2,
      "byteOffset": 1631712,
      "componentType": 5126,
      "count": 7332,
      "max": [
        1.6179800033569336,
        0.3296160101890564,
        0.5813260078430176
      ],
      "min": [
        -1.644036054611206,
        -1.4531420469284058,
        0.09540700167417526
      ],
      "type": "VEC3"
    },
    {
      "bufferView": 2,
      "byteOffset": 1719696,
      "componentType": 5126,
      "count": 7332,
      "max": [
        1.0,
        0.9999020099639893,
        0.9999045133590698
      ],
      "min": [
        -1.0,
        -0.9999129772186279,
        -0.9999957084655762
      ],
      "type": "VEC3"
    },
    {
      "bufferView": 1,
      "byteOffset": 543904,
      "componentType": 5126,
      "count": 7332,
      "max": [
        1.0,
        1.0
      ],
      "min": [
        0.0,
        0.0
      ],
      "type": "VEC2"
    },
    {
      "bufferView": 0,
      "byteOffset": 1393056,
      "componentType": 5125,
      "count": 31968,
      "type": "SCALAR"
    },
    {
      "bufferView": 2,
      "byteOffset": 1807680,
      "componentType": 5126,
      "count": 9727,
      "max": [
        0.2652589976787567,
        -1.3695919513702393,
        0.8664379715919495
      ],
      "min": [
        -0.2742060124874115,
        -1.4236940145492554,
        0.5522400140762329
      ],
      "type": "VEC3"
    },
    {
      "bufferView": 2,
      "byteOffset": 1924404,
      "componentType": 5126,
      "count": 9727,
      "max": [
        0.9997918009757996,
        0.9999926090240479,
        0.9999020099639893
      ],
      "min": [
        -0.9997918009757996,
        -0.999985933303833,
        -0.9999006986618042
      ],
      "type": "VEC3"
    },
    {
      "bufferView": 1,
      "byteOffset": 602560,
      "componentType": 5126,
      "count": 9727,
      "max": [
        0.4515250027179718,
        1.0000239610671997
      ],
      "min": [
        0.0,
        -1.2000000424450263e-05
      ],
      "type": "VEC2"
    },
    {
      "bufferView": 0,
      "byteOffset": 1520928,
      "componentType": 5125,
      "count": 55872,
      "type": "SCALAR"
    },
    {
      "bufferView": 2,
      "byteOffset": 2041128,
      "componentType": 5126,
      "count": 22016,
      "max": [
        1.181831955909729,
        -1.343729019165039,
        1.0014950037002563
      ],
      "min": [
        -1.1907789707183838,
        -1.4488409757614136,
        0.006579999811947346
      ],
      "type": "VEC3"
    },
    {
      "bufferView": 2,
      "byteOffset": 2305320,
      "componentType": 5126,
      "count": 22016,
      "max": [
        1.0,
        0.999953031539917,
        0.9999969005584717
      ],
      "min": [
        -1.0,
        -0.999953031539917,
        -0.9999819993972778
      ],
      "type": "VEC3"
    },
    {
      "bufferView": 1,
      "byteOffset": 680376,
      "componentType": 5126,
      "count": 22016,
      "max": [
        0.0,
        0.0
      ],
      "min": [
        0.0,
        0.0
      ],
      "type": "VEC2"
    },
    {
      "bufferView": 0,
      "byteOffset": 1744416,
      "componentType": 5125,
      "count": 122880,
      "type": "SCALAR"
    },
    {
      "bufferView": 2,
      "byteOffset": 2569512,
      "componentType": 5126,
      "count": 3716,
      "max": [
        0.2983019948005676,
        -1.271340012550354,
        0.4396750032901764
      ],
      "min": [
        -0.306657999753952,
        -1.3672950267791748,
        0.32427600026130676
      ],
      "type": "VEC3"
    },
    {
      "bufferView": 2,
      "byteOffset": 2614104,
      "componentType": 5126,
      "count": 3716,
      "max": [
        0.9981420040130615,
        0.9999408721923828,
        0.9996446967124939
      ],
      "min": [
        -0.9981391429901123,
        -0.9999330043792725,
        -0.9875060319900513
      ],
      "type": "VEC3"
    },
    {
      "bufferView": 1,
      "byteOffset": 856504,
      "componentType": 5126,
      "count": 3716,
      "max": [
        1.0000009536743164,
        1.0
      ],
      "min": [
        0.0,
        0.0
      ],
      "type": "VEC2"
    },
    {
      "bufferView": 0,
      "byteOffset": 2235936,
      "componentType": 5125,
      "count": 20844,
      "type": "SCALAR"
    }
  ],
  "asset": {
    "extras": {
      "author": "Dokono Kinokoda (https://sketchfab.com/JunkWren)",
      "license": "CC-BY-4.0 (http://creativecommons.org/licenses/by/4.0/)",
      "source": "https://sketchfab.com/3d-models/glasses-06-2c4f35a95dbf46d6becc0cd42473de15",
      "title": "Glasses 06"
    },
    "generator": "Sketchfab-12.67.0",
    "version": "2.0"
  },
  "bufferViews": [
    {
      "buffer": 0,
      "byteLength": 2319312,
      "name": "floatBufferViews",
      "target": 34963
    },
    {
      "buffer": 0,
      "byteLength": 886232,
      "byteOffset": 2319312,
      "byteStride": 8,
      "name": "floatBufferViews",
      "target": 34962
    },
    {
      "buffer": 0,
      "byteLength": 2658696,
      "byteOffset": 3205544,
      "byteStride": 12,
      "name": "floatBufferViews",
      "target": 34962
    },
    {
      "buffer": 0,
      "byteLength": 104928,
      "byteOffset": 5864240,
      "byteStride": 16,
      "name": "floatBufferViews",
      "target": 34962
    }
  ],
  "buffers": [
    {
      "byteLength": 5969168,
      "uri": "scene.bin"
    }
  ],
  "images": [
    {
      "uri": "textures/waku03_normal.png"
    }
  ],
  "materials": [
    {
      "alphaMode": "BLEND",
      "doubleSided": true,
      "name": "glass",
      "pbrMetallicRoughness": {
        "baseColorFactor": [
          0.004535162000000003,
          0.12346128329999999,
          0.6912592433999998,
          0.65
        ],
        "roughnessFactor": 0.05
      }
    },
    {
      "alphaMode": "BLEND",
      "doubleSided": true,
      "name": "hana",
      "pbrMetallicRoughness": {
        "baseColorFactor": [
          1.0,
          1.0,
          1.0,
          0.1597945509
        ],
        "metallicFactor": 0.0,
        "roughnessFactor": 0.8063508327
      }
    },
    {
      "doubleSided": true,
      "name": "turu",
      "pbrMetallicRoughness": {
        "baseColorFactor": [
          0.0133142929,
          0.0133142929,
          0.0133142929,
          1.0
        ],
        "metallicFactor": 0.5975670187,
        "roughnessFactor": 0.1
      }
    },
    {
      "doubleSided": true,
      "name": "waku",
      "pbrMetallicRoughness": {
        "baseColorFactor": [
          0.8069522576692516,
          0.7991027380144088,
          0.5028864580325685,
          1.0
        ],
        "roughnessFactor": 0.1
      }
    },
    {
      "doubleSided": true,
      "name": "waku03",
      "normalTexture": {
        "index": 0
      },
      "pbrMetallicRoughness": {
        "baseColorFactor": [
          0.8103699510436352,
          0.802085567265063,
          0.504139135788518,
          1.0
        ],
        "roughnessFactor": 0.1
      }
    }
  ],
  "meshes": [
    {
      "name": "Object_0",
      "primitives": [
        {
          "attributes": {
            "NORMAL": 1,
            "POSITION": 0,
            "TEXCOORD_0": 2
          },
          "indices": 3,
          "material": 0,
          "mode": 4
        }
      ]
    },
    {
      "name": "Object_1",
      "primitives": [
        {
          "attributes": {
            "NORMAL": 5,
            "POSITION": 4,
            "TEXCOORD_0": 6
          },
          "indices": 7,
          "material": 1,
          "mode": 4
        }
      ]
    },
    {
      "name": "Object_2",
      "primitives": [
        {
          "attributes": {
            "NORMAL": 9,
            "POSITION": 8,
            "TEXCOORD_0": 10
          },
          "indices": 11,
          "material": 2,
          "mode": 4
        }
      ]
    },
    {
      "name": "Object_3",
      "primitives": [
        {
          "attributes": {
            "NORMAL": 13,
            "POSITION": 12,
            "TANGENT": 14,
            "TEXCOORD_0": 15
          },
          "indices": 16,
          "material": 4,
          "mode": 4
        }
      ]
    },
    {
      "name": "Object_4",
      "primitives": [
        {
          "attributes": {
            "NORMAL": 18,
            "POSITION": 17,
            "TEXCOORD_0": 19
          },
          "indices": 20,
          "material": 3,
          "mode": 4
        }
      ]
    },
    {
      "name": "Object_5",
      "primitives": [
        {
          "attributes": {
            "NORMAL": 22,
            "POSITION": 21,
            "TEXCOORD_0": 23
          },
          "indices": 24,
          "material": 3,
          "mode": 4
        }
      ]
    },
    {
      "name": "Object_6",
      "primitives": [
        {
          "attributes": {
            "NORMAL": 26,
            "POSITION": 25,
            "TEXCOORD_0": 27
          },
          "indices": 28,
          "material": 3,
          "mode": 4
        }
      ]
    },
    {
      "name": "Object_7",
      "primitives": [
        {
          "attributes": {
            "NORMAL": 30,
            "POSITION": 29,
            "TEXCOORD_0": 31
          },
          "indices": 32,
          "material": 3,
          "mode": 4
        }
      ]
    },
    {
      "name": "Object_8",
      "primitives": [
        {
          "attributes": {
            "NORMAL": 34,
            "POSITION": 33,
            "TEXCOORD_0": 35
          },
          "indices": 36,
          "material": 3,
          "mode": 4
        }
      ]
    },
    {
      "name": "Object_9",
      "primitives": [
        {
          "attributes": {
            "NORMAL": 38,
            "POSITION": 37,
            "TEXCOORD_0": 39
          },
          "indices": 40,
          "material": 3,
          "mode": 4
        }
      ]
    }
  ],
  "nodes": [
    {
      "children": [
        1
      ],
      "matrix": [
        1.0,
        0.0,
        0.0,
        0.0,
        0.0,
        2.220446049250313e-16,
        -1.0,
        0.0,
        0.0,
        1.0,
        2.220446049250313e-16,
        0.0,
        0.0,
        0.0,
        0.0,
        1.0
      ],
      "name": "Sketchfab_model"
    },
    {
      "children": [
        2,
        3,
        4,
        5,
        6,
        7,
        8,
        9,
        10,
        11
      ],
      "name": "201026_010.obj.cleaner.materialmerger.gles"
    },
    {
      "mesh": 0,
      "name": "Object_2"
    },
    {
      "mesh": 1,
      "name": "Object_3"
    },
    {
      "mesh": 2,
      "name": "Object_4"
    },
    {
      "mesh": 3,
      "name": "Object_5"
    },
    {
      "mesh": 4,
      "name": "Object_6"
    },
    {
      "mesh": 5,
      "name": "Object_7"
    },
    {
      "mesh": 6,
      "name": "Object_8"
    },
    {
      "mesh": 7,
      "name": "Object_9"
    },
    {
      "mesh": 8,
      "name": "Object_10"
    },
    {
      "mesh": 9,
      "name": "Object_11"
    }
  ],
  "samplers": [
    {
      "magFilter": 9729,
      "minFilter": 9987,
      "wrapS": 10497,
      "wrapT": 10497
    }
  ],
  "scene": 0,
  "scenes": [
    {
      "name": "Sketchfab_Scene",
      "nodes": [
        0
      ]
    }
  ],
  "textures": [
    {
      "sampler": 0,
      "source": 0
    }
  ]
}
