{
  "accessors": [
    {
      "bufferView": 2,
      "componentType": 5126,
      "count": 440,
      "max": [
        33.1074104309082,
        5.558780670166016,
        3.5062289237976074
      ],
      "min": [
        -6.471951484680176,
        -0.8816667795181274,
        -19.629072189331055
      ],
      "type": "VEC3"
    },
    {
      "bufferView": 2,
      "byteOffset": 5280,
      "componentType": 5126,
      "count": 440,
      "max": [
        0.9999987483024597,
        0.9999971985816956,
        0.9999939799308777
      ],
      "min": [
        -0.9993093609809875,
        -0.9999971985816956,
        -0.9999410510063171
      ],
      "type": "VEC3"
    },
    {
      "bufferView": 1,
      "componentType": 5126,
      "count": 440,
      "max": [
        1.0000001192092896,
        1.0000001192092896
      ],
      "min": [
        0.0,
        0.0
      ],
      "type": "VEC2"
    },
    {
      "bufferView": 0,
      "componentType": 5125,
      "count": 2112,
      "type": "SCALAR"
    },
    {
      "bufferView": 2,
      "byteOffset": 10560,
      "componentType": 5126,
      "count": 440,
      "max": [
        33.29976272583008,
        5.75839376449585,
        3.705247163772583
      ],
      "min": [
        -6.671813488006592,
        -1.081666111946106,
        -19.825878143310547
      ],
      "type": "VEC3"
    },
    {
      "bufferView": 2,
      "byteOffset": 15840,
      "componentType": 5126,
      "count": 440,
      "max": [
        0.9990400075912476,
        0.9999949336051941,
        0.999951183795929
      ],
      "min": [
        -0.9999910593032837,
        -0.9999949336051941,
        -0.999990701675415
      ],
      "type": "VEC3"
    },
    {
      "bufferView": 1,
      "byteOffset": 3520,
      "componentType": 5126,
      "count": 440,
      "max": [
        1.0000001192092896,
        1.0000001192092896
      ],
      "min": [
        0.0,
        0.0
      ],
      "type": "VEC2"
    },
    {
      "bufferView": 0,
      "byteOffset": 8448,
      "componentType": 5125,
      "count": 2112,
      "type": "SCALAR"
    },
    {
      "bufferView": 2,
      "byteOffset": 21120,
      "componentType": 5126,
      "count": 199,
      "max": [
        12.880256652832031,
        1.3569822311401367,
        12.904897689819336
      ],
      "min": [
        -13.834883689880371,
        -21.500524520874023,
        -17.374713897705078
      ],
      "type": "VEC3"
    },
    {
      "bufferView": 2,
      "byteOffset": 23508,
      "componentType": 5126,
      "count": 199,
      "max": [
        0.9976451992988586,
        0.9964097142219543,
        0.9427653551101685
      ],
      "min": [
        -0.9998882412910461,
        -0.9541445970535278,
        -0.9997885823249817
      ],
      "type": "VEC3"
    },
    {
      "bufferView": 1,
      "byteOffset": 7040,
      "componentType": 5126,
      "count": 199,
      "max": [
        1.000000238418579,
        1.000000238418579
      ],
      "min": [
        0.48707693815231323,
        0.9274151921272278
      ],
      "type": "VEC2"
    },
    {
      "bufferView": 0,
      "byteOffset": 16896,
      "componentType": 5125,
      "count": 744,
      "type": "SCALAR"
    },
    {
      "bufferView": 2,
      "byteOffset": 25896,
      "componentType": 5126,
      "count": 357,
      "max": [
        24.954654693603516,
        5.913840293884277,
        3.3734235763549805
      ],
      "min": [
        6.320029258728027,
        2.4342200756073,
        -10.480313301086426
      ],
      "type": "VEC3"
    },
    {
      "bufferView": 2,
      "byteOffset": 30180,
      "componentType": 5126,
      "count": 357,
      "max": [
        0.9739184975624084,
        0.9998065829277039,
        0.9977923631668091
      ],
      "min": [
        -0.9975284337997437,
        -0.9991140365600586,
        -0.994979977607727
      ],
      "type": "VEC3"
    },
    {
      "bufferView": 1,
      "byteOffset": 8632,
      "componentType": 5126,
      "count": 357,
      "max": [
        0.8750001192092896,
        1.0000001192092896
      ],
      "min": [
        0.0,
        0.0
      ],
      "type": "VEC2"
    },
    {
      "bufferView": 0,
      "byteOffset": 19872,
      "componentType": 5125,
      "count": 1392,
      "type": "SCALAR"
    },
    {
      "bufferView": 2,
      "byteOffset": 34464,
      "componentType": 5126,
      "count": 169,
      "max": [
        -8.517753601074219,
        -16.34937286376953,
        29.062599182128906
      ],
      "min": [
        -20.675329208374023,
        -24.59345245361328,
        22.9182071685791
      ],
      "type": "VEC3"
    },
    {
      "bufferView": 2,
      "byteOffset": 36492,
      "componentType": 5126,
      "count": 169,
      "max": [
        0.5244312882423401,
        0.9296778440475464,
        0.9914422631263733
      ],
      "min": [
        -0.994247555732727,
        -0.9868451952934265,
        -0.9900704026222229
      ],
      "type": "VEC3"
    },
    {
      "bufferView": 1,
      "byteOffset": 11488,
      "componentType": 5126,
      "count": 169,
      "max": [
        0.6977667808532715,
        0.8227668404579163
      ],
      "min": [
        0.3022332787513733,
        0.42723333835601807
      ],
      "type": "VEC2"
    },
    {
      "bufferView": 0,
      "byteOffset": 25440,
      "componentType": 5125,
      "count": 768,
      "type": "SCALAR"
    },
    {
      "bufferView": 2,
      "byteOffset": 38520,
      "componentType": 5126,
      "count": 2596,
      "max": [
        47.780113220214844,
        4.948512077331543,
        37.509971618652344
      ],
      "min": [
        -19.685741424560547,
        -34.521949768066406,
        -24.909074783325195
      ],
      "type": "VEC3"
    },
    {
      "bufferView": 2,
      "byteOffset": 69672,
      "componentType": 5126,
      "count": 2596,
      "max": [
        0.9995417594909668,
        0.9993491768836975,
        0.9995782971382141
      ],
      "min": [
        -0.9973252415657043,
        -0.9999452829360962,
        -0.9991018176078796
      ],
      "type": "VEC3"
    },
    {
      "bufferView": 1,
      "byteOffset": 12840,
      "componentType": 5126,
      "count": 2596,
      "max": [
        1.000000238418579,
        1.000000238418579
      ],
      "min": [
        -0.30751803517341614,
        0.0
      ],
      "type": "VEC2"
    },
    {
      "bufferView": 0,
      "byteOffset": 28512,
      "componentType": 5125,
      "count": 12696,
      "type": "SCALAR"
    },
    {
      "bufferView": 2,
      "byteOffset": 100824,
      "componentType": 5126,
      "count": 2720,
      "max": [
        48.648441314697266,
        5.878050804138184,
        38.42264175415039
      ],
      "min": [
        -21.507890701293945,
        -35.44923782348633,
        -25.759204864501953
      ],
      "type": "VEC3"
    },
    {
      "bufferView": 2,
      "byteOffset": 133464,
      "componentType": 5126,
      "count": 2720,
      "max": [
        0.9970282316207886,
        0.9999300837516785,
        0.9986344575881958
      ],
      "min": [
        -0.999218761920929,
        -0.99933922290802,
        -0.9996388554573059
      ],
      "type": "VEC3"
    },
    {
      "bufferView": 1,
      "byteOffset": 33608,
      "componentType": 5126,
      "count": 2720,
      "max": [
        1.000000238418579,
        1.000000238418579
      ],
      "min": [
        -0.30751803517341614,
        0.0
      ],
      "type": "VEC2"
    },
    {
      "bufferView": 0,
      "byteOffset": 79296,
      "componentType": 5125,
      "count": 13464,
      "type": "SCALAR"
    }
  ],
  "asset": {
    "extras": {
      "author": "Clo7er (https://sketchfab.com/clo7er)",
      "license": "CC-BY-4.0 (http://creativecommons.org/licenses/by/4.0/)",
      "source": "https://sketchfab.com/3d-models/pusheen-the-cat-994de8f60308403889c9d501425581e9",
      "title": "Pusheen the Cat"
    },
    "generator": "Sketchfab-15.5.0",
    "version": "2.0"
  },
  "bufferViews": [
    {
      "buffer": 0,
      "byteLength": 133152,
      "name": "floatBufferViews",
      "target": 34963
    },
    {
      "buffer": 0,
      "byteLength": 55368,
      "byteOffset": 133152,
      "byteStride": 8,
      "name": "floatBufferViews",
      "target": 34962
    },
    {
      "buffer": 0,
      "byteLength": 166104,
      "byteOffset": 188520,
      "byteStride": 12,
      "name": "floatBufferViews",
      "target": 34962
    }
  ],
  "buffers": [
    {
      "byteLength": 354624,
      "uri": "scene.bin"
    }
  ],
  "extensionsUsed": [
    "KHR_materials_unlit"
  ],
  "materials": [
    {
      "doubleSided": true,
      "extensions": {
        "KHR_materials_unlit": {}
      },
      "name": "Blacks",
      "pbrMetallicRoughness": {
        "baseColorFactor": [
          0.07036009569659588,
          0.022173884793387375,
          0.004024717018496304,
          1.0
        ],
        "metallicFactor": 0.0
      }
    },
    {
      "extensions": {
        "KHR_materials_unlit": {}
      },
      "name": "OH_Outline_Material",
      "pbrMetallicRoughness": {
        "baseColorFactor": [
          0.07618538148130782,
          0.025186859627361627,
          0.005181516702338386,
          1.0
        ],
        "metallicFactor": 0.0
      }
    },
    {
      "doubleSided": true,
      "extensions": {
        "KHR_materials_unlit": {}
      },
      "name": "GrayFurs",
      "pbrMetallicRoughness": {
        "baseColorFactor": [
          0.4620769996544071,
          0.39675523072562685,
          0.33716361504833037,
          1.0
        ],
        "metallicFactor": 0.0
      }
    }
  ],
  "meshes": [
    {
      "name": "Object_0",
      "primitives": [
        {
          "attributes": {
            "NORMAL": 1,
            "POSITION": 0,
            "TEXCOORD_0": 2
          },
          "indices": 3,
          "material": 0,
          "mode": 4
        }
      ]
    },
    {
      "name": "Object_1",
      "primitives": [
        {
          "attributes": {
            "NORMAL": 5,
            "POSITION": 4,
            "TEXCOORD_0": 6
          },
          "indices": 7,
          "material": 1,
          "mode": 4
        }
      ]
    },
    {
      "name": "Object_2",
      "primitives": [
        {
          "attributes": {
            "NORMAL": 9,
            "POSITION": 8,
            "TEXCOORD_0": 10
          },
          "indices": 11,
          "material": 0,
          "mode": 4
        }
      ]
    },
    {
      "name": "Object_3",
      "primitives": [
        {
          "attributes": {
            "NORMAL": 13,
            "POSITION": 12,
            "TEXCOORD_0": 14
          },
          "indices": 15,
          "material": 0,
          "mode": 4
        }
      ]
    },
    {
      "name": "Object_4",
      "primitives": [
        {
          "attributes": {
            "NORMAL": 17,
            "POSITION": 16,
            "TEXCOORD_0": 18
          },
          "indices": 19,
          "material": 0,
          "mode": 4
        }
      ]
    },
    {
      "name": "Object_5",
      "primitives": [
        {
          "attributes": {
            "NORMAL": 21,
            "POSITION": 20,
            "TEXCOORD_0": 22
          },
          "indices": 23,
          "material": 2,
          "mode": 4
        }
      ]
    },
    {
      "name": "Object_6",
      "primitives": [
        {
          "attributes": {
            "NORMAL": 25,
            "POSITION": 24,
            "TEXCOORD_0": 26
          },
          "indices": 27,
          "material": 1,
          "mode": 4
        }
      ]
    }
  ],
  "nodes": [
    {
      "children": [
        1
      ],
      "matrix": [
        1.0,
        0.0,
        0.0,
        0.0,
        0.0,
        2.220446049250313e-16,
        -1.0,
        0.0,
        0.0,
        1.0,
        2.220446049250313e-16,
        0.0,
        0.0,
        0.0,
        0.0,
        1.0
      ],
      "name": "Sketchfab_model"
    },
    {
      "children": [
        2
      ],
      "name": "root"
    },
    {
      "children": [
        3,
        6,
        8,
        10
      ],
      "matrix": [
        1.0,
        0.0,
        0.0,
        0.0,
        0.0,
        2.220446049250313e-16,
        1.0,
        0.0,
        0.0,
        -1.0,
        2.220446049250313e-16,
        0.0,
        0.0,
        0.0,
        0.0,
        1.0
      ],
      "name": "GLTF_SceneRootNode"
    },
    {
      "children": [
        4,
        5
      ],
      "matrix": [
        -0.0680155735789544,
        -0.0641093275188845,
        -1.1206643554826808e-08,
        -0.0,
        -0.014777174082686447,
        0.015677546322183645,
        0.09095039192682818,
        0.0,
        0.062383018531117156,
        -0.06618408260745232,
        0.02154414845274949,
        0.0,
        0.03005398064851761,
        3.22670578956604,
        2.526869297027588,
        1.0
      ],
      "name": "Whiskers_0"
    },
    {
      "mesh": 0,
      "name": "Object_4"
    },
    {
      "mesh": 1,
      "name": "Object_5"
    },
    {
      "children": [
        7
      ],
      "matrix": [
        -0.0680155735789544,
        -0.0641093275188845,
        -1.1206643554826808e-08,
        -0.0,
        -0.014777174082686447,
        0.015677546322183645,
        0.09095039192682818,
        0.0,
        0.062383018531117156,
        -0.06618408260745232,
        0.02154414845274949,
        0.0,
        0.03005398064851761,
        3.22670578956604,
        2.526869297027588,
        1.0
      ],
      "name": "Stripes_1"
    },
    {
      "mesh": 2,
      "name": "Object_7"
    },
    {
      "children": [
        9
      ],
      "matrix": [
        -0.0680155735789544,
        -0.0641093275188845,
        -1.1206643554826808e-08,
        -0.0,
        -0.014777174082686447,
        0.015677546322183645,
        0.09095039192682818,
        0.0,
        0.062383018531117156,
        -0.06618408260745232,
        0.02154414845274949,
        0.0,
        0.03005398064851761,
        3.22670578956604,
        2.526869297027588,
        1.0
      ],
      "name": "PusheenFace_2"
    },
    {
      "mesh": 3,
      "name": "Object_9"
    },
    {
      "children": [
        11,
        12,
        13
      ],
      "matrix": [
        -0.0680155735789544,
        -0.0641093275188845,
        -1.1206643554826808e-08,
        -0.0,
        -0.014777174082686447,
        0.015677546322183645,
        0.09095039192682818,
        0.0,
        0.062383018531117156,
        -0.06618408260745232,
        0.02154414845274949,
        0.0,
        0.03005398064851761,
        3.22670578956604,
        2.526869297027588,
        1.0
      ],
      "name": "PusheenCat_3"
    },
    {
      "mesh": 4,
      "name": "Object_11"
    },
    {
      "mesh": 5,
      "name": "Object_12"
    },
    {
      "mesh": 6,
      "name": "Object_13"
    }
  ],
  "scene": 0,
  "scenes": [
    {
      "name": "Sketchfab_Scene",
      "nodes": [
        0
      ]
    }
  ]
}
