{"asset":{"version":"2.0","generator":"Unity 2022.3.37f1 glTFast 6.7.1"},"nodes":[{"name":"_000_Elsa_Epilogue_lod0","mesh":0,"rotation":[-0.7071068,0,0,0.7071068]},{"name":"_001_Elsa_Epilogue_lod0","mesh":1,"rotation":[-0.7071068,0,0,0.7071068]},{"name":"_002_Elsa_Epilogue_lod0","mesh":2,"rotation":[-0.7071068,0,0,0.7071068]},{"name":"_003_Elsa_Epilogue_lod0","mesh":3,"rotation":[-0.7071068,0,0,0.7071068]},{"name":"_004_Elsa_Epilogue_lod0","mesh":4,"rotation":[-0.7071068,0,0,0.7071068]},{"name":"Bip001_L_Toe0","translation":[0.07892872,0.1326525,1.49012E-08],"rotation":[3.09847148E-10,1.62693969E-09,0.7071068,0.7071068]},{"name":"Bip001_L_Foot","children":[5],"translation":[0.5382515,0,7.45058E-09],"rotation":[-0.0541734621,-0.00510770641,0.0383103,0.9977833]},{"name":"Bip001_L_Calf","children":[6],"translation":[0.5329224,0,-2.23517E-08],"rotation":[8.792787E-09,8.93814744E-10,-0.0399232954,0.9992027]},{"name":"Bip001_L_Thigh","children":[7],"translation":[-1.19209E-07,1.80677E-07,0.09450518],"rotation":[-0.0014885565,-0.9994843,0.03194078,0.00297403685]},{"name":"Bip001_R_Toe0","translation":[0.07892875,0.1326525,7.45058E-09],"rotation":[6.585512E-10,-6.585512E-10,0.7071068,0.7071068]},{"name":"Bip001_R_Foot","children":[9],"translation":[0.5382517,7.45058E-09,-7.45058E-09],"rotation":[0.0541734062,0.00510775158,0.038310308,0.9977833]},{"name":"Bip001_R_Calf","children":[10],"translation":[0.5329224,1.86265E-09,0],"rotation":[-1.298322E-09,-3.6654163E-10,-0.0399230644,0.9992028]},{"name":"Bip001_R_Thigh","children":[11],"translation":[0,-8.19564E-08,-0.09450518],"rotation":[-0.0014885125,-0.9994843,-0.03193936,-0.00297578215]},{"name":"Bip001_L_Finger01","translation":[0.03384125,-5.96046E-08,-1.19209E-07],"rotation":[-3.71359943E-09,3.05935473E-08,0.07917093,0.9968611]},{"name":"Bip001_L_Finger0","children":[13],"translation":[0.05109233,0.009537339,-0.01852988],"rotation":[0.7669936,0.394355655,-0.05515945,0.503151953]},{"name":"Bip001_L_Finger11","translation":[0.04060972,1.19209E-07,0],"rotation":[1.06361515E-08,1.858965E-08,-0.00964844,0.999953449]},{"name":"Bip001_L_Finger1","children":[15],"translation":[0.1083592,-0.006583691,-0.02605899],"rotation":[0.0126882838,0.104975536,0.122977018,0.986760259]},{"name":"Bip001_L_Finger21","translation":[0.04737782,-2.38419E-07,0],"rotation":[1.0314694E-08,-1.58274116E-09,0.04267437,0.999089062]},{"name":"Bip001_L_Finger2","children":[17],"translation":[0.1103779,-0.01057708,-0.006795302],"rotation":[0.004526135,-0.03684303,0.132115439,0.9905391]},{"name":"Bip001_L_Finger31","translation":[0.0406096,0,7.45058E-09],"rotation":[2.28432184E-09,8.704652E-09,0.0208157636,0.999783337]},{"name":"Bip001_L_Finger3","children":[19],"translation":[0.1094653,-0.009010077,0.01806618],"rotation":[-0.00724151451,-0.09904054,0.179809958,0.9786761]},{"name":"Bip001_L_Finger41","translation":[0.02580744,0,2.98023E-08],"rotation":[5.54235635E-09,-1.13783134E-08,-0.0121247238,0.9999265]},{"name":"Bip001_L_Finger4","children":[21],"translation":[0.1037556,-0.007660627,0.036397],"rotation":[-0.05942807,-0.241291419,0.2302802,0.940860152]},{"name":"Bip001_L_Hand","children":[14,16,18,20,22],"translation":[0.2393071,2.98023E-08,0],"rotation":[-0.791168153,0.01149394,0.015441779,0.61129576]},{"name":"bn_ForeArm_Twist_L_01","rotation":[-0.127116367,-1.00628372E-09,5.551757E-10,0.9918878]},{"name":"bn_ForeArm_Twist_L_02","translation":[0.1196535,7.45058E-09,1.19209E-07],"rotation":[-0.0636873543,-2.46452231E-07,-5.77957E-09,0.9979699]},{"name":"Bip001_L_Forearm","children":[23,24,25],"translation":[0.2737093,2.98023E-08,0],"rotation":[-2.68238681E-10,1.50435273E-08,-0.04921332,0.9987883]},{"name":"bn_Arm_Mid_L_01","translation":[0.1278008,-5.06639E-07,2.98023E-06],"rotation":[-0.030565029,1.49795856E-08,1.72314021E-08,0.999532759]},{"name":"Bip001_L_UpperArm","children":[26,27],"translation":[0.1403412,7.45058E-09,1.19209E-07],"rotation":[0.128408059,0.285613537,-0.146870539,0.9382779]},{"name":"bn_Sleeve5_L","translation":[0.4013556,9.53674E-07,1.78814E-07]},{"name":"bn_Sleeve4_L","children":[29],"translation":[0.459754,0,2.98023E-07]},{"name":"bn_Sleeve3_L","children":[30],"translation":[0.4007194,-5.96046E-08,-1.49012E-07]},{"name":"bn_Sleeve2_L","children":[31],"translation":[0.2919497,-1.78814E-07,5.36442E-07]},{"name":"bn_Sleeve1_L","children":[32],"translation":[0.045044,0.04282767,0.02501047],"rotation":[0.132446423,0.311444372,0.152001813,0.9286311]},{"name":"bn_Shdlr_L_01","children":[33],"translation":[0.1403412,7.45058E-09,1.19209E-07],"rotation":[0.07083817,0.294053882,-0.1291448,0.9443706]},{"name":"Bip001_L_Clavicle","children":[28,34],"translation":[0.2556911,0.0286737,0.02052124],"rotation":[-0.626953661,0.147564873,-0.755158246,0.122023508]},{"name":"bn_brow_C","translation":[0.08942699,0.1251565,-4.54747E-13]},{"name":"bn_brow_end_L","translation":[0.10718,0.08655876,0.08085392],"rotation":[0.3174233,-0.299820036,-0.147594064,0.8874494]},{"name":"bn_brow_end_R","translation":[0.1071802,0.08655857,-0.08085402],"rotation":[-0.299820632,-0.317423731,-0.8874491,-0.147593647]},{"name":"bn_brow_mid_L","translation":[0.1044145,0.1043844,0.0643698],"rotation":[0.206778765,0.0932619944,0.0108835138,0.9738718]},{"name":"bn_brow_mid_R","translation":[0.1044149,0.1043848,-0.06436982],"rotation":[0.09326097,-0.206780151,-0.9738716,0.0108854035]},{"name":"bn_brow_top_L","translation":[0.1004635,0.1128902,0.0453285],"rotation":[0.208883882,0.193109021,0.0551328249,0.9570981]},{"name":"bn_brow_top_R","translation":[0.1004635,0.1128903,-0.04532836],"rotation":[0.193108037,-0.208885208,-0.957097948,0.05513491]},{"name":"bn_corner_lip_L_01","translation":[-0.02008319,0.1253213,0.03747049],"rotation":[-0.5127179,-0.6979403,0.296017468,-0.402955979]},{"name":"bn_corner_lip_lower_L_01","translation":[-0.02008319,0.1253213,0.03747048],"rotation":[-0.5233558,-0.718674362,0.272769272,-0.367699355]},{"name":"bn_corner_lip_lower_R_01","translation":[-0.02008331,0.1253214,-0.03746843],"rotation":[-0.5233637,-0.7186825,-0.272755623,0.3676823]},{"name":"bn_corner_lip_R_01","translation":[-0.02008331,0.1253214,-0.03746838],"rotation":[-0.5127173,-0.6979402,-0.296017528,0.402956754]},{"name":"bn_corner_lip_upper_L_01","translation":[-0.02008319,0.1253213,0.03747048],"rotation":[-0.612735152,-0.638099,0.2191802,-0.411515951]},{"name":"bn_corner_lip_upper_R_01","translation":[-0.02008343,0.1253214,-0.03746841],"rotation":[-0.6127517,-0.638101935,-0.219158217,0.4114985]},{"name":"bn_eye_L","translation":[0.06122625,0.08080082,0.05040165]},{"name":"bn_eye_R","translation":[0.06122613,0.08080097,-0.05039957]},{"name":"bn_Eyelid_Dn_L","translation":[0.0606792,0.08205047,0.04772969],"rotation":[0.230764911,0.03769573,0.241041616,0.9419265]},{"name":"bn_Eyelid_Dn_R","translation":[0.06068015,0.08203009,-0.04771773],"rotation":[-0.227120936,-0.0383082666,0.2414375,0.9426858]},{"name":"bn_Eyelid_Up_L","translation":[0.06177258,0.07955116,0.05307376],"rotation":[0.187285,0.139992177,-0.221127078,0.9467996]},{"name":"bn_Eyelid_Up_R","translation":[0.06177282,0.07957193,-0.0530809],"rotation":[-0.183707759,-0.139056742,-0.221076339,0.9476497]},{"name":"bn_Hair3","translation":[0.3039993,5.96046E-08,1.91092E-07],"rotation":[2.18775611E-08,7.70493159E-07,-0.0283827819,0.999597132]},{"name":"bn_Hair2","children":[55],"translation":[0.2215922,0,-1.31838E-07],"rotation":[1.29147949E-07,3.097951E-07,-0.3847846,0.9230064]},{"name":"bn_Hair1","children":[56],"translation":[0.1558883,0.06320211,-1.52589E-07],"rotation":[-1.52368784E-07,4.54256678E-07,-0.912475348,0.409131676]},{"name":"bn_Hair_Front_L_03","translation":[0.05003667,8.9407E-08,-1.19209E-07],"rotation":[-4.66469139E-08,-0.0171270762,0.0069253887,0.999829352]},{"name":"bn_Hair_Front_L_02","children":[58],"translation":[0.07388258,3.57628E-07,8.19564E-08],"rotation":[1.02029333E-07,0.106082894,-0.7461987,0.6572168]},{"name":"bn_Hair_Front_L_01","children":[59],"translation":[0.154734,0.1205591,-0.01108325],"rotation":[-0.624102831,-0.489093,-0.322014153,0.5172916]},{"name":"bn_Hair_Side_L_02","translation":[0.1461487,-3.57628E-07,-3.57628E-07],"rotation":[-4.031026E-08,0.03298279,0.239393741,0.9703622]},{"name":"bn_Hair_Side_L_01","children":[61],"translation":[0.1750294,0.1056747,0.08161692],"rotation":[-0.193793565,-0.0259369928,-0.949552536,0.245196566]},{"name":"bn_HairLock_L_04","translation":[0.09332967,-2.98023E-08,-2.38419E-07],"rotation":[-4.45862653E-08,0.215392455,-0.00413507549,0.976518869]},{"name":"bn_HairLock_L_03","children":[63],"translation":[0.1496658,0,-1.19209E-07],"rotation":[8.016537E-08,-0.08054496,0.202946588,0.975871563]},{"name":"bn_HairLock_L_02","children":[64],"translation":[0.1236185,5.96046E-08,2.83122E-07],"rotation":[6.62294264E-09,-0.1603003,-0.0732836053,0.9843441]},{"name":"bn_HairLock_L_01","children":[65],"translation":[0.09270966,-0.0245624,0.1012965],"rotation":[0.0520835221,-0.00753734075,-0.9883169,-0.1430392]},{"name":"bn_jaw_01","translation":[0.03657806,0.008416079,-6.33942E-08],"rotation":[-0.379928321,-0.596367657,-0.596368253,-0.379927635]},{"name":"bn_lip_lower_L_01","translation":[-0.02824306,0.1390295,1.42208E-07],"rotation":[-0.46102488,-0.486075759,-0.400094718,0.6253884]},{"name":"bn_lip_lower_R_01","translation":[-0.02824295,0.1390298,7.82712E-08],"rotation":[0.461019844,0.486078739,-0.400100082,0.625386357]},{"name":"bn_lip_upper_L_01","translation":[-0.01869273,0.1444204,1.64206E-07],"rotation":[-0.437121361,-0.420260519,-0.5537807,0.57064265]},{"name":"bn_lip_upper_R_01","translation":[-0.01869249,0.1444206,1.78563E-07],"rotation":[0.4371192,0.42026493,-0.5537834,0.570638359]},{"name":"Bip001_Head","children":[36,37,38,39,40,41,42,43,44,45,46,47,48,49,50,51,52,53,54,57,60,62,66,67,68,69,70,71],"translation":[0.1163301,-4.68493E-05,-7.0545E-09],"rotation":[1.7053037E-07,-1.33467983E-08,-0.0780277252,0.9969512]},{"name":"Bip001_Neck","children":[72],"translation":[0.3229423,-0.01743393,-4.94634E-07],"rotation":[-2.21788632E-08,2.83373879E-07,0.0780281052,0.996951163]},{"name":"Bip001_R_Finger01","translation":[0.03384131,-5.96046E-08,1.19209E-07],"rotation":[2.71749467E-08,7.220737E-08,0.07917093,0.9968611]},{"name":"Bip001_R_Finger0","children":[74],"translation":[0.05109221,0.009537458,0.01852991],"rotation":[-0.7669933,-0.394355357,-0.05515959,0.503152668]},{"name":"Bip001_R_Finger11","translation":[0.04060966,0,-2.98023E-08],"rotation":[1.866156E-08,3.35619781E-08,-0.009648406,0.999953449]},{"name":"Bip001_R_Finger1","children":[76],"translation":[0.1083592,-0.006583691,0.026059],"rotation":[-0.0126882773,-0.104975589,0.122976966,0.986760259]},{"name":"Bip001_R_Finger21","translation":[0.04737765,1.19209E-07,2.98023E-08],"rotation":[1.52733453E-08,-5.324515E-09,0.0426743,0.999089062]},{"name":"Bip001_R_Finger2","children":[78],"translation":[0.1103781,-0.01057696,0.006795287],"rotation":[-0.004526087,0.0368431136,0.132115409,0.9905391]},{"name":"Bip001_R_Finger31","translation":[0.04060966,-1.19209E-07,-2.23517E-08],"rotation":[3.05620169E-08,-2.20663E-09,0.0208156928,0.999783337]},{"name":"Bip001_R_Finger3","children":[80],"translation":[0.1094651,-0.009009838,-0.0180662],"rotation":[0.007241615,0.09904054,0.179809943,0.9786761]},{"name":"Bip001_R_Finger41","translation":[0.02580726,0,-2.98023E-08],"rotation":[-1.80672935E-10,-7.51777751E-09,-0.0121247238,0.9999265]},{"name":"Bip001_R_Finger4","children":[82],"translation":[0.1037555,-0.007660627,-0.036397],"rotation":[0.05942824,0.241291419,0.230280131,0.940860152]},{"name":"Bip001_R_Hand","children":[75,77,79,81,83],"translation":[0.2393071,7.45058E-09,-1.19209E-07],"rotation":[0.791168153,-0.0114939241,0.0154417632,0.61129576]},{"name":"bn_ForeArm_Twist_R_01","rotation":[0.127132118,7.360518E-09,-4.96697572E-09,0.9918858]},{"name":"bn_ForeArm_Twist_R_02","translation":[0.1196535,0,-1.19209E-07],"rotation":[0.06369543,-1.50637138E-08,-1.16179188E-09,0.9979694]},{"name":"Bip001_R_Forearm","children":[84,85,86],"translation":[0.2737092,2.98023E-08,-1.19209E-07],"rotation":[2.32548689E-10,-1.50778785E-08,-0.04921332,0.9987883]},{"name":"bn_Arm_Mid_R_01","translation":[0.1277984,2.98023E-08,1.19209E-07],"rotation":[0.03056578,1.19153661E-07,-3.723554E-09,0.999532759]},{"name":"Bip001_R_UpperArm","children":[87,88],"translation":[0.1403413,1.30385E-08,3.57628E-07],"rotation":[-0.1284082,-0.285614073,-0.146870628,0.938277662]},{"name":"bn_Sleeve5_R","translation":[0.4013556,-4.17233E-07,1.19209E-07]},{"name":"bn_Sleeve4_R","children":[90],"translation":[0.4597538,3.57628E-07,2.98023E-08]},{"name":"bn_Sleeve3_R","children":[91],"translation":[0.4007194,-1.19209E-07,-2.08616E-07]},{"name":"bn_Sleeve2_R","children":[92],"translation":[0.2919496,0,-5.96046E-08]},{"name":"bn_Sleeve1_R","children":[93],"translation":[0.04504716,0.04282792,-0.02501237],"rotation":[0.928630769,0.152003467,0.3114446,0.132446691]},{"name":"bn_Shdlr_R_01","children":[94],"translation":[0.1403413,9.31323E-09,3.57628E-07],"rotation":[-0.07083672,-0.2940545,-0.129144281,0.9443707]},{"name":"Bip001_R_Clavicle","children":[89,95],"translation":[0.2556911,0.02867382,-0.02052109],"rotation":[0.626954138,-0.14756225,-0.7551587,0.1220218]},{"name":"Bip001_Spine1","children":[35,73,96],"translation":[0.09423172,-0.00018607,-5.08408E-10]},{"name":"Bip001_Spine","children":[97],"translation":[0.1090082,0.008433041,1.29491E-07]},{"name":"Bip001_Pelvis","children":[8,12,98],"rotation":[-0.5,-0.5,-0.499999374,0.500000656]},{"name":"bn_Dress_Back_L_04","translation":[0.3103817,-0.000897229,-8.60542E-06],"rotation":[-3.66580855E-09,-0.000174714893,0.0477558747,0.998859048]},{"name":"bn_Dress_Back_L_03","children":[100],"translation":[0.3126267,-0.000102997,-1.2368E-06],"rotation":[-2.84517256E-07,4.174781E-05,-0.004332758,0.999990642]},{"name":"bn_Dress_Back_L_02","children":[101],"translation":[0.2404652,-7.45058E-07,-5.28991E-07],"rotation":[1.84743953E-07,7.56438158E-06,0.04312548,0.9990697]},{"name":"bn_Dress_Back_L_01","children":[102],"translation":[-0.09323635,0.07307024,-0.01970577],"rotation":[-0.381260484,0.5775889,0.444048822,0.569080055]},{"name":"bn_Dress_Back_R_04","translation":[0.3103812,-0.00089711,-6.69807E-06],"rotation":[1.7898904E-07,-0.000183065858,0.0477548949,0.998859048]},{"name":"bn_Dress_Back_R_03","children":[104],"translation":[0.3126268,-0.000103861,4.47035E-08],"rotation":[1.56919072E-07,3.24140929E-05,-0.00433301972,0.999990642]},{"name":"bn_Dress_Back_R_02","children":[105],"translation":[0.2404655,-2.98023E-08,-7.00355E-07],"rotation":[1.69068841E-07,1.345627E-06,0.0431224369,0.9990698]},{"name":"bn_Dress_Back_R_01","children":[106],"translation":[-0.09323666,-0.07306989,-0.01970565],"rotation":[0.569919169,-0.440935165,-0.5800957,-0.379812181]},{"name":"bn_Dress_Front_L_04","translation":[0.336428,1.63913E-07,1.11759E-07],"rotation":[2.079923E-08,1.64829416E-05,-0.0306391418,0.9995305]},{"name":"bn_Dress_Front_L_03","children":[108],"translation":[0.2841625,6.85453E-07,-5.96046E-08],"rotation":[-3.70750683E-07,-4.844683E-05,-0.05239209,0.9986266]},{"name":"bn_Dress_Front_L_02","children":[109],"translation":[0.3534939,6.4075E-07,-6.25849E-07],"rotation":[-2.26686936E-07,-4.05174342E-06,-0.00128030567,0.999999166]},{"name":"bn_Dress_Front_L_01","children":[110],"translation":[0.07401955,0.07308008,0.09447336],"rotation":[0.5704043,-0.4083378,-0.553387642,-0.449067175]},{"name":"bn_Dress_Front_R_04","translation":[0.3364293,-2.98023E-07,-1.19209E-07],"rotation":[5.523039E-07,-1.17108E-05,-0.0306408182,0.9995305]},{"name":"bn_Dress_Front_R_03","children":[112],"translation":[0.2841625,8.79169E-07,-3.20375E-07],"rotation":[-1.4541412E-07,1.79897586E-06,-0.0523937419,0.99862653]},{"name":"bn_Dress_Front_R_02","children":[113],"translation":[0.3534948,0,-9.98378E-07],"rotation":[1.72090651E-07,1.23721475E-05,-0.00128030987,0.999999166]},{"name":"bn_Dress_Front_R_01","children":[114],"translation":[0.07401924,-0.07308011,0.09447336],"rotation":[-0.448615044,0.553709447,0.407858,0.570791]},{"name":"bn_Dress_Side_L_04","translation":[0.3106447,-0.000177857,-0.000320226],"rotation":[-4.5841638E-08,-0.006985391,0.002587278,0.9999723]},{"name":"bn_Dress_Side_L_03","children":[116],"translation":[0.3070377,-5.61774E-05,-0.000679195],"rotation":[1.36180887E-07,0.00154656847,-0.000859019,0.99999845]},{"name":"bn_Dress_Side_L_02","children":[117],"translation":[0.2411714,1.52737E-07,-7.7486E-07],"rotation":[-4.49970763E-08,0.00331405969,-0.000274176738,0.999994457]},{"name":"bn_Dress_Side_L_01","children":[118],"translation":[-0.01712052,0.152914,-0.01570594],"rotation":[-0.479573876,0.459352136,0.5349232,0.522361636]},{"name":"bn_Dress_Side_R_04","translation":[0.3106434,-0.000189548,0.000320494],"rotation":[-6.62719941E-08,0.0047207647,0.00151721912,0.9999877]},{"name":"bn_Dress_Side_R_03","children":[120],"translation":[0.3070349,-6.41532E-05,0.000678986],"rotation":[-1.990596E-08,-0.00102950109,-0.000609157665,0.9999993]},{"name":"bn_Dress_Side_R_02","children":[121],"translation":[0.2411732,-3.91155E-08,-1.78814E-07],"rotation":[-2.044825E-08,-0.00220728,-0.00020885354,0.999997556]},{"name":"bn_Dress_Side_R_01","children":[122],"translation":[-0.01712096,-0.15291,-0.01570594],"rotation":[0.524134338,-0.5318074,-0.4634522,-0.477154136]},{"name":"Bip001","children":[99,103,107,111,115,119,123],"translation":[0,1.147792,-0.02100403],"rotation":[-0.500000358,-0.499999642,-0.4999994,0.5000006]},{"name":"root","children":[124]},{"name":"elsa","children":[125],"rotation":[8.72664643E-08,0,0,1],"scale":[0.3937008,0.3937008,0.3937008]},{"name":"EnvironmentAmbientLight","rotation":[-0.7071068,0,0,0.7071068]},{"name":"elsaEpilogue_lod0","children":[0,1,2,3,4,126,127],"translation":[0,-2,0],"rotation":[0,-1,0,0],"scale":[10,10,10]}],"buffers":[{"uri":"elsaEpilogue_lod0.bin","byteLength":451304}],"bufferViews":[{"buffer":0,"byteLength":34842},{"buffer":0,"byteLength":13452,"byteOffset":34842},{"buffer":0,"byteLength":4320,"byteOffset":48294},{"buffer":0,"byteLength":9792,"byteOffset":52614},{"buffer":0,"byteLength":7152,"byteOffset":62406},{"buffer":0,"byteLength":161000,"byteOffset":69560,"byteStride":40},{"buffer":0,"byteLength":32200,"byteOffset":230560,"byteStride":8},{"buffer":0,"byteLength":57960,"byteOffset":262760,"byteStride":40},{"buffer":0,"byteLength":11592,"byteOffset":320720,"byteStride":8},{"buffer":0,"byteLength":16640,"byteOffset":332312,"byteStride":40},{"buffer":0,"byteLength":3328,"byteOffset":348952,"byteStride":8},{"buffer":0,"byteLength":47880,"byteOffset":352280,"byteStride":40},{"buffer":0,"byteLength":9576,"byteOffset":400160,"byteStride":8},{"buffer":0,"byteLength":34640,"byteOffset":409736,"byteStride":40},{"buffer":0,"byteLength":6928,"byteOffset":444376,"byteStride":8}],"accessors":[{"bufferView":5,"componentType":5126,"count":4025,"type":"VEC3","max":[0.574905634,1.975072,0.2461622],"min":[-0.5749059,0.0017952919,-0.3720009]},{"bufferView":5,"componentType":5126,"count":4025,"type":"VEC3","byteOffset":12},{"bufferView":5,"componentType":5126,"count":4025,"type":"VEC4","byteOffset":24},{"bufferView":6,"componentType":5126,"count":4025,"type":"VEC2"},{"bufferView":0,"componentType":5123,"count":17421,"type":"SCALAR"},{"bufferView":7,"componentType":5126,"count":1449,"type":"VEC3","max":[0.186319,2.046482,0.148126721],"min":[-0.1721336,1.28659391,-0.2264542]},{"bufferView":7,"componentType":5126,"count":1449,"type":"VEC3","byteOffset":12},{"bufferView":7,"componentType":5126,"count":1449,"type":"VEC4","byteOffset":24},{"bufferView":8,"componentType":5126,"count":1449,"type":"VEC2"},{"bufferView":1,"componentType":5123,"count":6726,"type":"SCALAR"},{"bufferView":9,"componentType":5126,"count":416,"type":"VEC3","max":[0.08662611,1.886346,0.1048883],"min":[-0.08662556,1.813897,0.0324390754]},{"bufferView":9,"componentType":5126,"count":416,"type":"VEC3","byteOffset":12},{"bufferView":9,"componentType":5126,"count":416,"type":"VEC4","byteOffset":24},{"bufferView":10,"componentType":5126,"count":416,"type":"VEC2"},{"bufferView":2,"componentType":5123,"count":2160,"type":"SCALAR"},{"bufferView":11,"componentType":5126,"count":1197,"type":"VEC3","max":[0.636081934,1.223716,0.0278740488],"min":[-0.6360822,1.059664,-0.104712993]},{"bufferView":11,"componentType":5126,"count":1197,"type":"VEC3","byteOffset":12},{"bufferView":11,"componentType":5126,"count":1197,"type":"VEC4","byteOffset":24},{"bufferView":12,"componentType":5126,"count":1197,"type":"VEC2"},{"bufferView":3,"componentType":5123,"count":4896,"type":"SCALAR"},{"bufferView":13,"componentType":5126,"count":866,"type":"VEC3","max":[0.681604266,1.566496,-0.0775063038],"min":[-0.6816031,0.03184831,-0.7459885]},{"bufferView":13,"componentType":5126,"count":866,"type":"VEC3","byteOffset":12},{"bufferView":13,"componentType":5126,"count":866,"type":"VEC4","byteOffset":24},{"bufferView":14,"componentType":5126,"count":866,"type":"VEC2"},{"bufferView":4,"componentType":5123,"count":3576,"type":"SCALAR"}],"images":[{"name":"Elsa_diff.jpg","uri":"Elsa_diff.jpg","mimeType":"image/jpeg"}],"materials":[{"name":"elsa_cloth","pbrMetallicRoughness":{"metallicFactor":0,"baseColorTexture":{"index":0}}},{"name":"elsa_hair","pbrMetallicRoughness":{"metallicFactor":0,"baseColorTexture":{"index":0}}},{"name":"elsa_eyes","pbrMetallicRoughness":{"metallicFactor":0,"baseColorTexture":{"index":0}}},{"name":"elsa_skin","pbrMetallicRoughness":{"metallicFactor":0,"baseColorTexture":{"index":0}}},{"name":"elsa_transparent","pbrMetallicRoughness":{"metallicFactor":0,"baseColorTexture":{"index":0}}}],"meshes":[{"name":"_000_Elsa_Epilogue_lod0","primitives":[{"attributes":{"POSITION":0,"NORMAL":1,"TANGENT":2,"TEXCOORD_0":3},"indices":4,"material":0}]},{"name":"_001_Elsa_Epilogue_lod0","primitives":[{"attributes":{"POSITION":5,"NORMAL":6,"TANGENT":7,"TEXCOORD_0":8},"indices":9,"material":1}]},{"name":"_002_Elsa_Epilogue_lod0","primitives":[{"attributes":{"POSITION":10,"NORMAL":11,"TANGENT":12,"TEXCOORD_0":13},"indices":14,"material":2}]},{"name":"_003_Elsa_Epilogue_lod0","primitives":[{"attributes":{"POSITION":15,"NORMAL":16,"TANGENT":17,"TEXCOORD_0":18},"indices":19,"material":3}]},{"name":"_004_Elsa_Epilogue_lod0","primitives":[{"attributes":{"POSITION":20,"NORMAL":21,"TANGENT":22,"TEXCOORD_0":23},"indices":24,"material":4}]}],"scene":0,"scenes":[{"name":"elsaEpilogue_lod0","nodes":[128]}],"textures":[{"source":0}]}